{
  "accessors": [
    {
      "bufferView": 2,
      "componentType": 5126,
      "count": 275,
      "max": [
        9.530325889587402,
        24.79717445373535,
        15.53380298614502
      ],
      "min": [
        -8.521744728088379,
        16.222902297973633,
        10.023308753967285
      ],
      "type": "VEC3"
    },
    {
      "bufferView": 2,
      "byteOffset": 3300,
      "componentType": 5126,
      "count": 275,
      "max": [
        0.9980282187461853,
        0.9988887310028076,
        0.992367684841156
      ],
      "min": [
        -0.9983450770378113,
        -0.986758828163147,
        -0.9934470057487488
      ],
      "type": "VEC3"
    },
    {
      "bufferView": 1,
      "componentType": 5126,
      "count": 275,
      "max": [
        0.6946172118186951,
        0.9765567183494568
      ],
      "min": [
        0.034549955278635025,
        0.6901487708091736
      ],
      "type": "VEC2"
    },
    {
      "bufferView": 1,
      "byteOffset": 2200,
      "componentType": 5126,
      "count": 275,
      "max": [
        0.0,
        0.0
      ],
      "min": [
        0.0,
        0.0
      ],
      "type": "VEC2"
    },
    {
      "bufferView": 2,
      "byteOffset": 6600,
      "componentType": 5126,
      "count": 275,
      "max": [
        1.5824956893920898,
        3.6047534942626953,
        0.6581611633300781
      ],
      "min": [
        -1.9174749851226807,
        -2.302013397216797,
        -2.0981321334838867
      ],
      "type": "VEC3"
    },
    {
      "bufferView": 2,
      "byteOffset": 9900,
      "componentType": 5126,
      "count": 275,
      "max": [
        0.6987120509147644,
        0.6648436784744263,
        0.7054464817047119
      ],
      "min": [
        -0.6820384860038757,
        -0.6859884262084961,
        -0.5849988460540771
      ],
      "type": "VEC3"
    },
    {
      "bufferView": 0,
      "componentType": 5125,
      "count": 1350,
      "type": "SCALAR"
    },
    {
      "bufferView": 2,
      "byteOffset": 13200,
      "componentType": 5126,
      "count": 178,
      "max": [
        2.8477492332458496,
        15.38008975982666,
        16.41128921508789
      ],
      "min": [
        -2.268336057662964,
        6.530369281768799,
        11.88016128540039
      ],
      "type": "VEC3"
    },
    {
      "bufferView": 2,
      "byteOffset": 15336,
      "componentType": 5126,
      "count": 178,
      "max": [
        0.9580135345458984,
        0.9660964608192444,
        0.9717513918876648
      ],
      "min": [
        -0.9995874166488647,
        -0.9990894794464111,
        -0.3861696124076843
      ],
      "type": "VEC3"
    },
    {
      "bufferView": 1,
      "byteOffset": 4400,
      "componentType": 5126,
      "count": 178,
      "max": [
        0.9557892084121704,
        0.9661673903465271
      ],
      "min": [
        0.8419515490531921,
        0.6205934286117554
      ],
      "type": "VEC2"
    },
    {
      "bufferView": 1,
      "byteOffset": 5824,
      "componentType": 5126,
      "count": 178,
      "max": [
        0.0,
        0.0
      ],
      "min": [
        0.0,
        0.0
      ],
      "type": "VEC2"
    },
    {
      "bufferView": 2,
      "byteOffset": 17472,
      "componentType": 5126,
      "count": 178,
      "max": [
        2.065059185028076,
        1.2007055282592773,
        0.7989511489868164
      ],
      "min": [
        1.279685378074646,
        -1.2007055282592773,
        -0.7446432113647461
      ],
      "type": "VEC3"
    },
    {
      "bufferView": 2,
      "byteOffset": 19608,
      "componentType": 5126,
      "count": 178,
      "max": [
        0.23565274477005005,
        0.20546412467956543,
        0.15992140769958496
      ],
      "min": [
        -0.18209514021873474,
        -0.17253166437149048,
        -0.07861852645874023
      ],
      "type": "VEC3"
    },
    {
      "bufferView": 0,
      "byteOffset": 5400,
      "componentType": 5125,
      "count": 624,
      "type": "SCALAR"
    },
    {
      "bufferView": 2,
      "byteOffset": 21744,
      "componentType": 5126,
      "count": 404,
      "max": [
        16.424583435058594,
        32.646949768066406,
        15.677563667297363
      ],
      "min": [
        -16.424583435058594,
        -0.20221494138240814,
        -17.171607971191406
      ],
      "type": "VEC3"
    },
    {
      "bufferView": 2,
      "byteOffset": 26592,
      "componentType": 5126,
      "count": 404,
      "max": [
        1.0,
        1.0,
        1.0
      ],
      "min": [
        -1.0,
        -1.0,
        -1.0
      ],
      "type": "VEC3"
    },
    {
      "bufferView": 1,
      "byteOffset": 7248,
      "componentType": 5126,
      "count": 404,
      "max": [
        1.0,
        0.6765882968902588
      ],
      "min": [
        0.0,
        2.0243701328581665e-06
      ],
      "type": "VEC2"
    },
    {
      "bufferView": 1,
      "byteOffset": 10480,
      "componentType": 5126,
      "count": 404,
      "max": [
        0.0,
        0.0
      ],
      "min": [
        0.0,
        0.0
      ],
      "type": "VEC2"
    },
    {
      "bufferView": 2,
      "byteOffset": 31440,
      "componentType": 5126,
      "count": 404,
      "max": [
        0.0,
        0.0,
        0.0
      ],
      "min": [
        0.0,
        0.0,
        0.0
      ],
      "type": "VEC3"
    },
    {
      "bufferView": 2,
      "byteOffset": 36288,
      "componentType": 5126,
      "count": 404,
      "max": [
        0.0,
        0.0,
        0.0
      ],
      "min": [
        0.0,
        0.0,
        0.0
      ],
      "type": "VEC3"
    },
    {
      "bufferView": 0,
      "byteOffset": 7896,
      "componentType": 5125,
      "count": 2280,
      "type": "SCALAR"
    },
    {
      "bufferView": 2,
      "byteOffset": 41136,
      "componentType": 5126,
      "count": 509,
      "max": [
        5.843221664428711,
        9.546137809753418,
        15.99722957611084
      ],
      "min": [
        3.059896469116211,
        6.907995700836182,
        14.620447158813477
      ],
      "type": "VEC3"
    },
    {
      "bufferView": 2,
      "byteOffset": 47244,
      "componentType": 5126,
      "count": 509,
      "max": [
        0.9972359538078308,
        0.9997758865356445,
        0.9967999458312988
      ],
      "min": [
        -0.9990814924240112,
        -0.9996033906936646,
        -0.9976509213447571
      ],
      "type": "VEC3"
    },
    {
      "bufferView": 1,
      "byteOffset": 13712,
      "componentType": 5126,
      "count": 509,
      "max": [
        0.0,
        0.0
      ],
      "min": [
        0.0,
        0.0
      ],
      "type": "VEC2"
    },
    {
      "bufferView": 1,
      "byteOffset": 17784,
      "componentType": 5126,
      "count": 509,
      "max": [
        1.0,
        0.6897968053817749
      ],
      "min": [
        0.0,
        0.0
      ],
      "type": "VEC2"
    },
    {
      "bufferView": 2,
      "byteOffset": 53352,
      "componentType": 5126,
      "count": 509,
      "max": [
        12.76966667175293,
        4.500605583190918,
        1.1743783950805664
      ],
      "min": [
        8.021390914916992,
        0.0,
        -1.1743783950805664
      ],
      "type": "VEC3"
    },
    {
      "bufferView": 2,
      "byteOffset": 59460,
      "componentType": 5126,
      "count": 509,
      "max": [
        0.09308549761772156,
        0.09376436471939087,
        0.09739583730697632
      ],
      "min": [
        -0.09262755513191223,
        -0.08552223443984985,
        -0.09653466939926147
      ],
      "type": "VEC3"
    },
    {
      "bufferView": 0,
      "byteOffset": 17016,
      "componentType": 5125,
      "count": 2952,
      "type": "SCALAR"
    },
    {
      "bufferView": 3,
      "componentType": 5126,
      "count": 62,
      "max": [
        1.3333333730697632
      ],
      "min": [
        0.0416666679084301
      ],
      "type": "SCALAR"
    },
    {
      "bufferView": 5,
      "componentType": 5126,
      "count": 62,
      "max": [
        2.252865937521451e-17,
        0.7071067690849304,
        2.9835249950652584e-17,
        0.7071067690849304
      ],
      "min": [
        -2.9835249950652584e-17,
        0.7071067690849304,
        -2.252865937521451e-17,
        0.7071067690849304
      ],
      "type": "VEC4"
    },
    {
      "bufferView": 3,
      "byteOffset": 248,
      "componentType": 5126,
      "count": 39,
      "max": [
        1.2916666269302368
      ],
      "min": [
        0.0416666679084301
      ],
      "type": "SCALAR"
    },
    {
      "bufferView": 4,
      "componentType": 5126,
      "count": 39,
      "max": [
        4.163336342344337e-16,
        16.132783889770508,
        1.3322676295501878e-15
      ],
      "min": [
        -4.996003610813204e-16,
        0.0,
        -8.881784197001252e-16
      ],
      "type": "VEC3"
    },
    {
      "bufferView": 3,
      "byteOffset": 404,
      "componentType": 5126,
      "count": 39,
      "max": [
        1.2916666269302368
      ],
      "min": [
        0.0416666679084301
      ],
      "type": "SCALAR"
    },
    {
      "bufferView": 5,
      "byteOffset": 992,
      "componentType": 5126,
      "count": 39,
      "max": [
        2.7755575615628914e-17,
        6.938893903907228e-18,
        3.0357660829594124e-17,
        1.0
      ],
      "min": [
        -5.551115123125783e-17,
        -1.0408340855860843e-17,
        -3.0357660829594124e-17,
        1.0
      ],
      "type": "VEC4"
    },
    {
      "bufferView": 3,
      "byteOffset": 560,
      "componentType": 5126,
      "count": 40,
      "max": [
        1.3333333730697632
      ],
      "min": [
        0.0416666679084301
      ],
      "type": "SCALAR"
    },
    {
      "bufferView": 5,
      "byteOffset": 1616,
      "componentType": 5126,
      "count": 40,
      "max": [
        0.0,
        0.0,
        0.0,
        1.0
      ],
      "min": [
        -0.13708682358264923,
        -0.0129387266933918,
        -0.09307078272104263,
        0.9860920906066895
      ],
      "type": "VEC4"
    },
    {
      "bufferView": 3,
      "byteOffset": 720,
      "componentType": 5126,
      "count": 27,
      "max": [
        1.3416666984558105
      ],
      "min": [
        0.0416666679084301
      ],
      "type": "SCALAR"
    },
    {
      "bufferView": 3,
      "byteOffset": 828,
      "componentType": 5126,
      "count": 27,
      "max": [
        1.0
      ],
      "min": [
        1.9257019590046554e-10
      ],
      "type": "SCALAR"
    },
    {
      "bufferView": 3,
      "byteOffset": 936,
      "componentType": 5126,
      "count": 27,
      "max": [
        1.3416666984558105
      ],
      "min": [
        0.0416666679084301
      ],
      "type": "SCALAR"
    },
    {
      "bufferView": 3,
      "byteOffset": 1044,
      "componentType": 5126,
      "count": 27,
      "max": [
        1.0
      ],
      "min": [
        1.9257019590046554e-10
      ],
      "type": "SCALAR"
    },
    {
      "bufferView": 3,
      "byteOffset": 1152,
      "componentType": 5126,
      "count": 27,
      "max": [
        1.3416666984558105
      ],
      "min": [
        0.0416666679084301
      ],
      "type": "SCALAR"
    },
    {
      "bufferView": 3,
      "byteOffset": 1260,
      "componentType": 5126,
      "count": 27,
      "max": [
        1.0
      ],
      "min": [
        1.9257019590046554e-10
      ],
      "type": "SCALAR"
    },
    {
      "bufferView": 3,
      "byteOffset": 1368,
      "componentType": 5126,
      "count": 27,
      "max": [
        1.3416666984558105
      ],
      "min": [
        0.0416666679084301
      ],
      "type": "SCALAR"
    },
    {
      "bufferView": 3,
      "byteOffset": 1476,
      "componentType": 5126,
      "count": 27,
      "max": [
        1.0
      ],
      "min": [
        1.9257019590046554e-10
      ],
      "type": "SCALAR"
    }
  ],
  "animations": [
    {
      "channels": [
        {
          "sampler": 0,
          "target": {
            "node": 6,
            "path": "rotation"
          }
        },
        {
          "sampler": 1,
          "target": {
            "node": 5,
            "path": "translation"
          }
        },
        {
          "sampler": 2,
          "target": {
            "node": 5,
            "path": "rotation"
          }
        },
        {
          "sampler": 3,
          "target": {
            "node": 4,
            "path": "rotation"
          }
        },
        {
          "sampler": 4,
          "target": {
            "node": 7,
            "path": "weights"
          }
        },
        {
          "sampler": 5,
          "target": {
            "node": 8,
            "path": "weights"
          }
        },
        {
          "sampler": 6,
          "target": {
            "node": 9,
            "path": "weights"
          }
        },
        {
          "sampler": 7,
          "target": {
            "node": 10,
            "path": "weights"
          }
        }
      ],
      "name": "Take 001",
      "samplers": [
        {
          "input": 28,
          "interpolation": "LINEAR",
          "output": 29
        },
        {
          "input": 30,
          "interpolation": "LINEAR",
          "output": 31
        },
        {
          "input": 32,
          "interpolation": "LINEAR",
          "output": 33
        },
        {
          "input": 34,
          "interpolation": "LINEAR",
          "output": 35
        },
        {
          "input": 36,
          "interpolation": "LINEAR",
          "output": 37
        },
        {
          "input": 38,
          "interpolation": "LINEAR",
          "output": 39
        },
        {
          "input": 40,
          "interpolation": "LINEAR",
          "output": 41
        },
        {
          "input": 42,
          "interpolation": "LINEAR",
          "output": 43
        }
      ]
    }
  ],
  "asset": {
    "extras": {
      "author": "JadeBarbiier (https://sketchfab.com/JadeBarbiier)",
      "license": "CC-BY-4.0 (http://creativecommons.org/licenses/by/4.0/)",
      "source": "https://sketchfab.com/3d-models/emoji-kiss-76b0df0a4cb345dc8e79944680cdf04e",
      "title": "Emoji_Kiss"
    },
    "generator": "Sketchfab-11.88.0",
    "version": "2.0"
  },
  "bufferViews": [
    {
      "buffer": 0,
      "byteLength": 28824,
      "name": "floatBufferViews",
      "target": 34963
    },
    {
      "buffer": 0,
      "byteLength": 21856,
      "byteOffset": 28824,
      "byteStride": 8,
      "name": "floatBufferViews",
      "target": 34962
    },
    {
      "buffer": 0,
      "byteLength": 65568,
      "byteOffset": 50680,
      "byteStride": 12,
      "name": "floatBufferViews",
      "target": 34962
    },
    {
      "buffer": 0,
      "byteLength": 1584,
      "byteOffset": 116248,
      "name": "floatBufferViews"
    },
    {
      "buffer": 0,
      "byteLength": 468,
      "byteOffset": 117832,
      "byteStride": 12,
      "name": "floatBufferViews"
    },
    {
      "buffer": 0,
      "byteLength": 2256,
      "byteOffset": 118300,
      "byteStride": 16,
      "name": "floatBufferViews"
    }
  ],
  "buffers": [
    {
      "byteLength": 120556,
      "uri": "scene.bin"
    }
  ],
  "images": [
    {
      "uri": "textures/Eyes_baseColor.png"
    },
    {
      "uri": "textures/Eyes_metallicRoughness.png"
    },
    {
      "uri": "textures/Mouth_baseColor.png"
    },
    {
      "uri": "textures/Mouth_metallicRoughness.png"
    },
    {
      "uri": "textures/Head_baseColor.png"
    },
    {
      "uri": "textures/Head_metallicRoughness.png"
    }
  ],
  "materials": [
    {
      "doubleSided": true,
      "name": "Eyes",
      "pbrMetallicRoughness": {
        "baseColorTexture": {
          "index": 0
        },
        "metallicFactor": 0.0,
        "metallicRoughnessTexture": {
          "index": 1
        }
      }
    },
    {
      "doubleSided": true,
      "name": "Mouth",
      "pbrMetallicRoughness": {
        "baseColorTexture": {
          "index": 2
        },
        "metallicFactor": 0.0,
        "metallicRoughnessTexture": {
          "index": 3
        }
      }
    },
    {
      "doubleSided": true,
      "name": "Head",
      "pbrMetallicRoughness": {
        "baseColorTexture": {
          "index": 4
        },
        "metallicFactor": 0.0,
        "metallicRoughnessTexture": {
          "index": 5
        }
      }
    },
    {
      "doubleSided": true,
      "name": "Heart5",
      "pbrMetallicRoughness": {
        "baseColorFactor": [
          0.285,
          0.0,
          0.0,
          1.0
        ],
        "metallicFactor": 0.0,
        "roughnessFactor": 0.07925161837505172
      }
    }
  ],
  "meshes": [
    {
      "name": "0",
      "primitives": [
        {
          "attributes": {
            "NORMAL": 1,
            "POSITION": 0,
            "TEXCOORD_0": 2,
            "TEXCOORD_1": 3
          },
          "indices": 6,
          "material": 0,
          "mode": 4,
          "targets": [
            {
              "NORMAL": 5,
              "POSITION": 4
            }
          ]
        }
      ],
      "weights": [
        0.0
      ]
    },
    {
      "name": "1",
      "primitives": [
        {
          "attributes": {
            "NORMAL": 8,
            "POSITION": 7,
            "TEXCOORD_0": 9,
            "TEXCOORD_1": 10
          },
          "indices": 13,
          "material": 1,
          "mode": 4,
          "targets": [
            {
              "NORMAL": 12,
              "POSITION": 11
            }
          ]
        }
      ],
      "weights": [
        0.0
      ]
    },
    {
      "name": "2",
      "primitives": [
        {
          "attributes": {
            "NORMAL": 15,
            "POSITION": 14,
            "TEXCOORD_0": 16,
            "TEXCOORD_1": 17
          },
          "indices": 20,
          "material": 2,
          "mode": 4,
          "targets": [
            {
              "NORMAL": 19,
              "POSITION": 18
            }
          ]
        }
      ],
      "weights": [
        0.0
      ]
    },
    {
      "name": "3",
      "primitives": [
        {
          "attributes": {
            "NORMAL": 22,
            "POSITION": 21,
            "TEXCOORD_0": 23,
            "TEXCOORD_1": 24
          },
          "indices": 27,
          "material": 3,
          "mode": 4,
          "targets": [
            {
              "NORMAL": 26,
              "POSITION": 25
            }
          ]
        }
      ],
      "weights": [
        0.0
      ]
    }
  ],
  "nodes": [
    {
      "children": [
        1
      ],
      "matrix": [
        1.0,
        0.0,
        0.0,
        0.0,
        0.0,
        2.220446049250313e-16,
        -1.0,
        0.0,
        0.0,
        1.0,
        2.220446049250313e-16,
        0.0,
        0.0,
        0.0,
        0.0,
        1.0
      ],
      "name": "Sketchfab_model"
    },
    {
      "children": [
        2
      ],
      "matrix": [
        0.009999999776482582,
        0.0,
        0.0,
        0.0,
        0.0,
        0.0,
        0.009999999776482582,
        0.0,
        0.0,
        -0.009999999776482582,
        0.0,
        0.0,
        0.0,
        0.0,
        0.0,
        1.0
      ],
      "name": "6e6870582d6645dbbafee7ac519b7d68.fbx"
    },
    {
      "children": [
        3
      ],
      "name": "Object_2"
    },
    {
      "children": [
        4
      ],
      "name": "RootNode"
    },
    {
      "children": [
        5
      ],
      "name": "group1"
    },
    {
      "children": [
        6
      ],
      "name": "Kiss_03"
    },
    {
      "children": [
        7,
        8,
        9,
        10
      ],
      "name": "Kiss_02_Eyes_R1",
      "rotation": [
        -0.0,
        0.7071068286895752,
        0.0,
        0.7071068286895752
      ],
      "scale": [
        2.014566659927368,
        2.014566659927368,
        2.014566659927368
      ]
    },
    {
      "mesh": 0,
      "name": "0"
    },
    {
      "mesh": 1,
      "name": "1"
    },
    {
      "mesh": 2,
      "name": "2"
    },
    {
      "mesh": 3,
      "name": "3"
    }
  ],
  "samplers": [
    {
      "magFilter": 9729,
      "minFilter": 9987,
      "wrapS": 10497,
      "wrapT": 10497
    }
  ],
  "scene": 0,
  "scenes": [
    {
      "name": "Sketchfab_Scene",
      "nodes": [
        0
      ]
    }
  ],
  "textures": [
    {
      "sampler": 0,
      "source": 0
    },
    {
      "sampler": 0,
      "source": 1
    },
    {
      "sampler": 0,
      "source": 2
    },
    {
      "sampler": 0,
      "source": 3
    },
    {
      "sampler": 0,
      "source": 4
    },
    {
      "sampler": 0,
      "source": 5
    }
  ]
}
