{
  "accessors": [
    {
      "bufferView": 2,
      "componentType": 5126,
      "count": 732,
      "max": [
        35.588645935058594,
        68.40184783935547,
        35.36525344848633
      ],
      "min": [
        -35.588645935058594,
        -2.5876541137695313,
        -35.36525344848633
      ],
      "type": "VEC3"
    },
    {
      "bufferView": 2,
      "byteOffset": 8784,
      "componentType": 5126,
      "count": 732,
      "max": [
        0.9994559288024902,
        0.9992865920066833,
        0.9974477291107178
      ],
      "min": [
        -0.9998584389686584,
        -0.9965969920158386,
        -0.9974477291107178
      ],
      "type": "VEC3"
    },
    {
      "bufferView": 1,
      "componentType": 5126,
      "count": 732,
      "max": [
        1.0,
        0.612798273563385
      ],
      "min": [
        0.0,
        3.2847249480252123e-16
      ],
      "type": "VEC2"
    },
    {
      "bufferView": 2,
      "byteOffset": 17568,
      "componentType": 5126,
      "count": 732,
      "max": [
        0.0,
        0.8367557525634766,
        1.7237696647644043
      ],
      "min": [
        0.0,
        -0.8315620422363281,
        -0.0330023430287838
      ],
      "type": "VEC3"
    },
    {
      "bufferView": 2,
      "byteOffset": 26352,
      "componentType": 5126,
      "count": 732,
      "max": [
        0.38845112919807434,
        0.3829978406429291,
        0.19925740361213684
      ],
      "min": [
        -0.14633995294570923,
        -0.5385720729827881,
        -0.21612617373466492
      ],
      "type": "VEC3"
    },
    {
      "bufferView": 2,
      "byteOffset": 35136,
      "componentType": 5126,
      "count": 732,
      "max": [
        0.0,
        0.8367557525634766,
        1.7237696647644043
      ],
      "min": [
        0.0,
        -0.8315620422363281,
        -0.0330023430287838
      ],
      "type": "VEC3"
    },
    {
      "bufferView": 2,
      "byteOffset": 43920,
      "componentType": 5126,
      "count": 732,
      "max": [
        0.38845112919807434,
        0.3829978406429291,
        0.19925740361213684
      ],
      "min": [
        -0.14633995294570923,
        -0.5385720729827881,
        -0.21612617373466492
      ],
      "type": "VEC3"
    },
    {
      "bufferView": 2,
      "byteOffset": 52704,
      "componentType": 5126,
      "count": 732,
      "max": [
        0.0,
        0.0,
        0.0
      ],
      "min": [
        0.0,
        0.0,
        0.0
      ],
      "type": "VEC3"
    },
    {
      "bufferView": 2,
      "byteOffset": 61488,
      "componentType": 5126,
      "count": 732,
      "max": [
        0.0,
        0.0,
        0.0
      ],
      "min": [
        0.0,
        0.0,
        0.0
      ],
      "type": "VEC3"
    },
    {
      "bufferView": 0,
      "componentType": 5125,
      "count": 4008,
      "type": "SCALAR"
    },
    {
      "bufferView": 2,
      "byteOffset": 70272,
      "componentType": 5126,
      "count": 132,
      "max": [
        33.410160064697266,
        27.26370620727539,
        20.015226364135742
      ],
      "min": [
        22.19060516357422,
        7.501071929931641,
        -19.99179458618164
      ],
      "type": "VEC3"
    },
    {
      "bufferView": 2,
      "byteOffset": 71856,
      "componentType": 5126,
      "count": 132,
      "max": [
        0.9548054337501526,
        -0.1572033166885376,
        0.5709444880485535
      ],
      "min": [
        0.6987869739532471,
        -0.697215735912323,
        -0.5785763263702393
      ],
      "type": "VEC3"
    },
    {
      "bufferView": 1,
      "byteOffset": 5856,
      "componentType": 5126,
      "count": 132,
      "max": [
        0.5914987921714783,
        0.2632194757461548
      ],
      "min": [
        0.4084635376930237,
        0.13772356510162354
      ],
      "type": "VEC2"
    },
    {
      "bufferView": 2,
      "byteOffset": 73440,
      "componentType": 5126,
      "count": 132,
      "max": [
        0.0,
        1.4615707397460938,
        1.9629870653152466
      ],
      "min": [
        0.0,
        -1.563772201538086,
        -0.2088341861963272
      ],
      "type": "VEC3"
    },
    {
      "bufferView": 2,
      "byteOffset": 75024,
      "componentType": 5126,
      "count": 132,
      "max": [
        0.0559161901473999,
        0.0642080307006836,
        0.15332001447677612
      ],
      "min": [
        -0.07290482521057129,
        -0.1090703010559082,
        -0.08585718274116516
      ],
      "type": "VEC3"
    },
    {
      "bufferView": 2,
      "byteOffset": 76608,
      "componentType": 5126,
      "count": 132,
      "max": [
        0.0,
        1.4615707397460938,
        1.9629870653152466
      ],
      "min": [
        0.0,
        -1.563772201538086,
        -0.2088341861963272
      ],
      "type": "VEC3"
    },
    {
      "bufferView": 2,
      "byteOffset": 78192,
      "componentType": 5126,
      "count": 132,
      "max": [
        0.0559161901473999,
        0.0642080307006836,
        0.15332001447677612
      ],
      "min": [
        -0.07290482521057129,
        -0.1090703010559082,
        -0.08585718274116516
      ],
      "type": "VEC3"
    },
    {
      "bufferView": 2,
      "byteOffset": 79776,
      "componentType": 5126,
      "count": 132,
      "max": [
        0.0,
        0.0,
        0.0
      ],
      "min": [
        0.0,
        0.0,
        0.0
      ],
      "type": "VEC3"
    },
    {
      "bufferView": 2,
      "byteOffset": 81360,
      "componentType": 5126,
      "count": 132,
      "max": [
        0.0,
        0.0,
        0.0
      ],
      "min": [
        0.0,
        0.0,
        0.0
      ],
      "type": "VEC3"
    },
    {
      "bufferView": 0,
      "byteOffset": 16032,
      "componentType": 5125,
      "count": 666,
      "type": "SCALAR"
    },
    {
      "bufferView": 2,
      "byteOffset": 82944,
      "componentType": 5126,
      "count": 120,
      "max": [
        34.94944381713867,
        30.735063552856445,
        9.212638854980469
      ],
      "min": [
        28.039955139160156,
        27.30213737487793,
        -9.276890754699707
      ],
      "type": "VEC3"
    },
    {
      "bufferView": 2,
      "byteOffset": 84384,
      "componentType": 5126,
      "count": 120,
      "max": [
        0.9937912225723267,
        0.9998887181282043,
        0.9238439798355103
      ],
      "min": [
        -0.9940822720527649,
        -0.9987276196479797,
        -0.9085280895233154
      ],
      "type": "VEC3"
    },
    {
      "bufferView": 1,
      "byteOffset": 6912,
      "componentType": 5126,
      "count": 120,
      "max": [
        0.22552919387817383,
        0.7320377826690674
      ],
      "min": [
        0.0,
        0.5622041821479797
      ],
      "type": "VEC2"
    },
    {
      "bufferView": 2,
      "byteOffset": 85824,
      "componentType": 5126,
      "count": 120,
      "max": [
        0.0,
        0.6928482055664063,
        0.5049786567687988
      ],
      "min": [
        -0.08599853515625,
        -20.150768280029297,
        -1.918904423713684
      ],
      "type": "VEC3"
    },
    {
      "bufferView": 2,
      "byteOffset": 87264,
      "componentType": 5126,
      "count": 120,
      "max": [
        0.6200321316719055,
        0.7910974621772766,
        0.5608973503112793
      ],
      "min": [
        -0.6208564639091492,
        -0.5593986511230469,
        -0.7136322855949402
      ],
      "type": "VEC3"
    },
    {
      "bufferView": 2,
      "byteOffset": 88704,
      "componentType": 5126,
      "count": 120,
      "max": [
        0.0,
        0.6928482055664063,
        2.8725829124450684
      ],
      "min": [
        0.0,
        -19.99677848815918,
        -0.20231902599334717
      ],
      "type": "VEC3"
    },
    {
      "bufferView": 2,
      "byteOffset": 90144,
      "componentType": 5126,
      "count": 120,
      "max": [
        0.6200323700904846,
        0.8099686503410339,
        0.6492143273353577
      ],
      "min": [
        -0.6208564639091492,
        -0.5593986511230469,
        -0.5488804578781128
      ],
      "type": "VEC3"
    },
    {
      "bufferView": 2,
      "byteOffset": 91584,
      "componentType": 5126,
      "count": 120,
      "max": [
        0.0,
        0.6928482055664063,
        0.0
      ],
      "min": [
        0.0,
        -19.84537124633789,
        0.0
      ],
      "type": "VEC3"
    },
    {
      "bufferView": 2,
      "byteOffset": 93024,
      "componentType": 5126,
      "count": 120,
      "max": [
        0.6200322508811951,
        0.6152855157852173,
        0.5608973503112793
      ],
      "min": [
        -0.620856523513794,
        -0.5583478808403015,
        -0.6048781871795654
      ],
      "type": "VEC3"
    },
    {
      "bufferView": 0,
      "byteOffset": 18696,
      "componentType": 5125,
      "count": 624,
      "type": "SCALAR"
    },
    {
      "bufferView": 2,
      "byteOffset": 94464,
      "componentType": 5126,
      "count": 510,
      "max": [
        35.29960250854492,
        44.914222717285156,
        20.802001953125
      ],
      "min": [
        26.64255142211914,
        31.285568237304688,
        -19.496122360229492
      ],
      "type": "VEC3"
    },
    {
      "bufferView": 2,
      "byteOffset": 100584,
      "componentType": 5126,
      "count": 510,
      "max": [
        0.9906443953514099,
        0.9931055903434753,
        0.9894875288009644
      ],
      "min": [
        -0.9966640472412109,
        -0.9665276408195496,
        -0.9894875288009644
      ],
      "type": "VEC3"
    },
    {
      "bufferView": 1,
      "byteOffset": 7872,
      "componentType": 5126,
      "count": 510,
      "max": [
        0.9995275735855103,
        0.7046337127685547
      ],
      "min": [
        0.39784276485443115,
        0.5460522174835205
      ],
      "type": "VEC2"
    },
    {
      "bufferView": 2,
      "byteOffset": 106704,
      "componentType": 5126,
      "count": 510,
      "max": [
        0.0,
        2.553852081298828,
        0.0
      ],
      "min": [
        0.0,
        2.5538482666015625,
        0.0
      ],
      "type": "VEC3"
    },
    {
      "bufferView": 2,
      "byteOffset": 112824,
      "componentType": 5126,
      "count": 510,
      "max": [
        0.06115543842315674,
        0.1469092071056366,
        0.06340253353118896
      ],
      "min": [
        -0.073025643825531,
        -0.06706053018569946,
        -0.06340253353118896
      ],
      "type": "VEC3"
    },
    {
      "bufferView": 2,
      "byteOffset": 118944,
      "componentType": 5126,
      "count": 510,
      "max": [
        0.0,
        0.0,
        0.0
      ],
      "min": [
        0.0,
        0.0,
        0.0
      ],
      "type": "VEC3"
    },
    {
      "bufferView": 2,
      "byteOffset": 125064,
      "componentType": 5126,
      "count": 510,
      "max": [
        0.0,
        0.0,
        0.0
      ],
      "min": [
        0.0,
        0.0,
        0.0
      ],
      "type": "VEC3"
    },
    {
      "bufferView": 2,
      "byteOffset": 131184,
      "componentType": 5126,
      "count": 510,
      "max": [
        0.0,
        1.9908409118652344,
        0.0
      ],
      "min": [
        0.0,
        1.9908370971679688,
        0.0
      ],
      "type": "VEC3"
    },
    {
      "bufferView": 2,
      "byteOffset": 137304,
      "componentType": 5126,
      "count": 510,
      "max": [
        0.06115514039993286,
        0.1469092071056366,
        0.06340301036834717
      ],
      "min": [
        -0.073025643825531,
        -0.06706023216247559,
        -0.06340301036834717
      ],
      "type": "VEC3"
    },
    {
      "bufferView": 0,
      "byteOffset": 21192,
      "componentType": 5125,
      "count": 2688,
      "type": "SCALAR"
    },
    {
      "bufferView": 3,
      "componentType": 5126,
      "count": 66,
      "max": [
        4.5
      ],
      "min": [
        0.0416666679084301
      ],
      "type": "SCALAR"
    },
    {
      "bufferView": 5,
      "componentType": 5126,
      "count": 66,
      "max": [
        5.551115123125783e-17,
        0.0,
        0.0,
        1.0
      ],
      "min": [
        -5.551115123125783e-17,
        0.0,
        0.0,
        1.0
      ],
      "type": "VEC4"
    },
    {
      "bufferView": 3,
      "byteOffset": 264,
      "componentType": 5126,
      "count": 90,
      "max": [
        4.166666507720947
      ],
      "min": [
        0.0416666679084301
      ],
      "type": "SCALAR"
    },
    {
      "bufferView": 4,
      "componentType": 5126,
      "count": 90,
      "max": [
        0.0,
        12.799924850463867,
        0.0
      ],
      "min": [
        0.0,
        0.0,
        0.0
      ],
      "type": "VEC3"
    },
    {
      "bufferView": 3,
      "byteOffset": 624,
      "componentType": 5126,
      "count": 127,
      "max": [
        4.166666507720947
      ],
      "min": [
        0.0416666679084301
      ],
      "type": "SCALAR"
    },
    {
      "bufferView": 5,
      "byteOffset": 1056,
      "componentType": 5126,
      "count": 127,
      "max": [
        0.21093115210533142,
        0.0,
        0.0,
        1.0
      ],
      "min": [
        -0.25602298974990845,
        0.0,
        0.0,
        0.9666706919670105
      ],
      "type": "VEC4"
    },
    {
      "bufferView": 3,
      "byteOffset": 1132,
      "componentType": 5126,
      "count": 125,
      "max": [
        4.175000190734863
      ],
      "min": [
        0.0416666679084301
      ],
      "type": "SCALAR"
    },
    {
      "bufferView": 3,
      "byteOffset": 1632,
      "componentType": 5126,
      "count": 375,
      "max": [
        1.0
      ],
      "min": [
        0.0
      ],
      "type": "SCALAR"
    },
    {
      "bufferView": 3,
      "byteOffset": 3132,
      "componentType": 5126,
      "count": 125,
      "max": [
        4.175000190734863
      ],
      "min": [
        0.0416666679084301
      ],
      "type": "SCALAR"
    },
    {
      "bufferView": 3,
      "byteOffset": 3632,
      "componentType": 5126,
      "count": 375,
      "max": [
        1.0
      ],
      "min": [
        0.0
      ],
      "type": "SCALAR"
    },
    {
      "bufferView": 3,
      "byteOffset": 5132,
      "componentType": 5126,
      "count": 125,
      "max": [
        4.175000190734863
      ],
      "min": [
        0.0416666679084301
      ],
      "type": "SCALAR"
    },
    {
      "bufferView": 3,
      "byteOffset": 5632,
      "componentType": 5126,
      "count": 375,
      "max": [
        1.0
      ],
      "min": [
        0.0
      ],
      "type": "SCALAR"
    },
    {
      "bufferView": 3,
      "byteOffset": 7132,
      "componentType": 5126,
      "count": 125,
      "max": [
        4.175000190734863
      ],
      "min": [
        0.0416666679084301
      ],
      "type": "SCALAR"
    },
    {
      "bufferView": 3,
      "byteOffset": 7632,
      "componentType": 5126,
      "count": 375,
      "max": [
        1.0
      ],
      "min": [
        0.0
      ],
      "type": "SCALAR"
    }
  ],
  "animations": [
    {
      "channels": [
        {
          "sampler": 0,
          "target": {
            "node": 5,
            "path": "rotation"
          }
        },
        {
          "sampler": 1,
          "target": {
            "node": 4,
            "path": "translation"
          }
        },
        {
          "sampler": 2,
          "target": {
            "node": 4,
            "path": "rotation"
          }
        },
        {
          "sampler": 3,
          "target": {
            "node": 6,
            "path": "weights"
          }
        },
        {
          "sampler": 4,
          "target": {
            "node": 7,
            "path": "weights"
          }
        },
        {
          "sampler": 5,
          "target": {
            "node": 8,
            "path": "weights"
          }
        },
        {
          "sampler": 6,
          "target": {
            "node": 9,
            "path": "weights"
          }
        }
      ],
      "name": "Take 001",
      "samplers": [
        {
          "input": 40,
          "interpolation": "LINEAR",
          "output": 41
        },
        {
          "input": 42,
          "interpolation": "LINEAR",
          "output": 43
        },
        {
          "input": 44,
          "interpolation": "LINEAR",
          "output": 45
        },
        {
          "input": 46,
          "interpolation": "LINEAR",
          "output": 47
        },
        {
          "input": 48,
          "interpolation": "LINEAR",
          "output": 49
        },
        {
          "input": 50,
          "interpolation": "LINEAR",
          "output": 51
        },
        {
          "input": 52,
          "interpolation": "LINEAR",
          "output": 53
        }
      ]
    }
  ],
  "asset": {
    "extras": {
      "author": "JadeBarbiier (https://sketchfab.com/JadeBarbiier)",
      "license": "CC-BY-4.0 (http://creativecommons.org/licenses/by/4.0/)",
      "source": "https://sketchfab.com/3d-models/emoji-tongue-d0bd82b23fa74569ac47c11bb240928a",
      "title": "Emoji_Tongue"
    },
    "generator": "Sketchfab-11.88.0",
    "version": "2.0"
  },
  "bufferViews": [
    {
      "buffer": 0,
      "byteLength": 31944,
      "name": "floatBufferViews",
      "target": 34963
    },
    {
      "buffer": 0,
      "byteLength": 11952,
      "byteOffset": 31944,
      "byteStride": 8,
      "name": "floatBufferViews",
      "target": 34962
    },
    {
      "buffer": 0,
      "byteLength": 143424,
      "byteOffset": 43896,
      "byteStride": 12,
      "name": "floatBufferViews",
      "target": 34962
    },
    {
      "buffer": 0,
      "byteLength": 9132,
      "byteOffset": 187320,
      "name": "floatBufferViews"
    },
    {
      "buffer": 0,
      "byteLength": 1080,
      "byteOffset": 196452,
      "byteStride": 12,
      "name": "floatBufferViews"
    },
    {
      "buffer": 0,
      "byteLength": 3088,
      "byteOffset": 197532,
      "byteStride": 16,
      "name": "floatBufferViews"
    }
  ],
  "buffers": [
    {
      "byteLength": 200620,
      "uri": "scene.bin"
    }
  ],
  "images": [
    {
      "uri": "textures/Skin_baseColor.png"
    },
    {
      "uri": "textures/Skin_metallicRoughness.png"
    },
    {
      "uri": "textures/Mouth_baseColor.png"
    },
    {
      "uri": "textures/Mouth_metallicRoughness.png"
    },
    {
      "uri": "textures/Tongue_baseColor.png"
    },
    {
      "uri": "textures/Tongue_metallicRoughness.png"
    },
    {
      "uri": "textures/Brown1_baseColor.png"
    },
    {
      "uri": "textures/Brown1_metallicRoughness.png"
    }
  ],
  "materials": [
    {
      "doubleSided": true,
      "name": "Skin",
      "pbrMetallicRoughness": {
        "baseColorTexture": {
          "index": 0
        },
        "metallicFactor": 0.0,
        "metallicRoughnessTexture": {
          "index": 1
        }
      }
    },
    {
      "doubleSided": true,
      "name": "Mouth",
      "pbrMetallicRoughness": {
        "baseColorTexture": {
          "index": 2
        },
        "metallicFactor": 0.0,
        "metallicRoughnessTexture": {
          "index": 3
        }
      }
    },
    {
      "doubleSided": true,
      "name": "Tongue",
      "pbrMetallicRoughness": {
        "baseColorTexture": {
          "index": 4
        },
        "metallicFactor": 0.0,
        "metallicRoughnessTexture": {
          "index": 5
        },
        "roughnessFactor": 0.47507921441763823
      }
    },
    {
      "doubleSided": true,
      "name": "Brown1",
      "pbrMetallicRoughness": {
        "baseColorTexture": {
          "index": 6
        },
        "metallicFactor": 0.0,
        "metallicRoughnessTexture": {
          "index": 7
        }
      }
    }
  ],
  "meshes": [
    {
      "name": "0",
      "primitives": [
        {
          "attributes": {
            "NORMAL": 1,
            "POSITION": 0,
            "TEXCOORD_0": 2
          },
          "indices": 9,
          "material": 0,
          "mode": 4,
          "targets": [
            {
              "NORMAL": 4,
              "POSITION": 3
            },
            {
              "NORMAL": 6,
              "POSITION": 5
            },
            {
              "NORMAL": 8,
              "POSITION": 7
            }
          ]
        }
      ],
      "weights": [
        0.0,
        0.0,
        0.0
      ]
    },
    {
      "name": "1",
      "primitives": [
        {
          "attributes": {
            "NORMAL": 11,
            "POSITION": 10,
            "TEXCOORD_0": 12
          },
          "indices": 19,
          "material": 1,
          "mode": 4,
          "targets": [
            {
              "NORMAL": 14,
              "POSITION": 13
            },
            {
              "NORMAL": 16,
              "POSITION": 15
            },
            {
              "NORMAL": 18,
              "POSITION": 17
            }
          ]
        }
      ],
      "weights": [
        0.0,
        0.0,
        0.0
      ]
    },
    {
      "name": "2",
      "primitives": [
        {
          "attributes": {
            "NORMAL": 21,
            "POSITION": 20,
            "TEXCOORD_0": 22
          },
          "indices": 29,
          "material": 2,
          "mode": 4,
          "targets": [
            {
              "NORMAL": 24,
              "POSITION": 23
            },
            {
              "NORMAL": 26,
              "POSITION": 25
            },
            {
              "NORMAL": 28,
              "POSITION": 27
            }
          ]
        }
      ],
      "weights": [
        0.0,
        0.0,
        0.0
      ]
    },
    {
      "name": "3",
      "primitives": [
        {
          "attributes": {
            "NORMAL": 31,
            "POSITION": 30,
            "TEXCOORD_0": 32
          },
          "indices": 39,
          "material": 3,
          "mode": 4,
          "targets": [
            {
              "NORMAL": 34,
              "POSITION": 33
            },
            {
              "NORMAL": 36,
              "POSITION": 35
            },
            {
              "NORMAL": 38,
              "POSITION": 37
            }
          ]
        }
      ],
      "weights": [
        0.0,
        0.0,
        0.0
      ]
    }
  ],
  "nodes": [
    {
      "children": [
        1
      ],
      "matrix": [
        1.0,
        0.0,
        0.0,
        0.0,
        0.0,
        2.220446049250313e-16,
        -1.0,
        0.0,
        0.0,
        1.0,
        2.220446049250313e-16,
        0.0,
        0.0,
        0.0,
        0.0,
        1.0
      ],
      "name": "Sketchfab_model"
    },
    {
      "children": [
        2
      ],
      "matrix": [
        0.009999999776482582,
        0.0,
        0.0,
        0.0,
        0.0,
        0.0,
        0.009999999776482582,
        0.0,
        0.0,
        -0.009999999776482582,
        0.0,
        0.0,
        0.0,
        0.0,
        0.0,
        1.0
      ],
      "name": "0fe1cfd5b7a14b09b9b17b58fa3ef597.fbx"
    },
    {
      "children": [
        3
      ],
      "name": "Object_2"
    },
    {
      "children": [
        4
      ],
      "name": "RootNode"
    },
    {
      "children": [
        5
      ],
      "name": "HP_Smile1:group1"
    },
    {
      "children": [
        6,
        7,
        8,
        9
      ],
      "name": "HP_Smile1:polySurface2"
    },
    {
      "mesh": 0,
      "name": "0"
    },
    {
      "mesh": 1,
      "name": "1"
    },
    {
      "mesh": 2,
      "name": "2"
    },
    {
      "mesh": 3,
      "name": "3"
    }
  ],
  "samplers": [
    {
      "magFilter": 9729,
      "minFilter": 9987,
      "wrapS": 10497,
      "wrapT": 10497
    }
  ],
  "scene": 0,
  "scenes": [
    {
      "name": "Sketchfab_Scene",
      "nodes": [
        0
      ]
    }
  ],
  "textures": [
    {
      "sampler": 0,
      "source": 0
    },
    {
      "sampler": 0,
      "source": 1
    },
    {
      "sampler": 0,
      "source": 2
    },
    {
      "sampler": 0,
      "source": 3
    },
    {
      "sampler": 0,
      "source": 4
    },
    {
      "sampler": 0,
      "source": 5
    },
    {
      "sampler": 0,
      "source": 6
    },
    {
      "sampler": 0,
      "source": 7
    }
  ]
}
