{
  "accessors": [
    {
      "bufferView": 2,
      "componentType": 5126,
      "count": 664,
      "max": [
        33.34638214111328,
        34.81219482421875,
        34.79366683959961
      ],
      "min": [
        -36.07969665527344,
        -34.81219482421875,
        -34.79366683959961
      ],
      "type": "VEC3"
    },
    {
      "bufferView": 2,
      "byteOffset": 7968,
      "componentType": 5126,
      "count": 664,
      "max": [
        0.9972339272499084,
        0.9986029267311096,
        0.9981622695922852
      ],
      "min": [
        -0.9969571828842163,
        -0.9994620084762573,
        -0.9981622695922852
      ],
      "type": "VEC3"
    },
    {
      "bufferView": 1,
      "componentType": 5126,
      "count": 664,
      "max": [
        0.7737472057342529,
        0.5215045809745789
      ],
      "min": [
        0.0,
        0.016727998852729797
      ],
      "type": "VEC2"
    },
    {
      "bufferView": 1,
      "byteOffset": 5312,
      "componentType": 5126,
      "count": 664,
      "max": [
        0.0,
        0.0
      ],
      "min": [
        0.0,
        0.0
      ],
      "type": "VEC2"
    },
    {
      "bufferView": 2,
      "byteOffset": 15936,
      "componentType": 5126,
      "count": 664,
      "max": [
        0.8865127563476563,
        2.094606399536133,
        2.6052780151367188
      ],
      "min": [
        -0.8865165710449219,
        -2.0928611755371094,
        -2.6052780151367188
      ],
      "type": "VEC3"
    },
    {
      "bufferView": 2,
      "byteOffset": 23904,
      "componentType": 5126,
      "count": 664,
      "max": [
        0.035727739334106445,
        0.13386951386928558,
        0.059146732091903687
      ],
      "min": [
        -0.04324716329574585,
        -0.05115211009979248,
        -0.058847516775131226
      ],
      "type": "VEC3"
    },
    {
      "bufferView": 0,
      "componentType": 5125,
      "count": 3762,
      "type": "SCALAR"
    },
    {
      "bufferView": 2,
      "byteOffset": 31872,
      "componentType": 5126,
      "count": 141,
      "max": [
        32.24993133544922,
        -7.600338935852051,
        18.534889221191406
      ],
      "min": [
        19.635927200317383,
        -23.24694061279297,
        -18.534889221191406
      ],
      "type": "VEC3"
    },
    {
      "bufferView": 2,
      "byteOffset": 33564,
      "componentType": 5126,
      "count": 141,
      "max": [
        0.985663652420044,
        -0.16564811766147614,
        0.5127595067024231
      ],
      "min": [
        0.4950650930404663,
        -0.8418703079223633,
        -0.5127596855163574
      ],
      "type": "VEC3"
    },
    {
      "bufferView": 1,
      "byteOffset": 10624,
      "componentType": 5126,
      "count": 141,
      "max": [
        0.9390450119972229,
        0.5897385478019714
      ],
      "min": [
        0.7547405362129211,
        0.49462825059890747
      ],
      "type": "VEC2"
    },
    {
      "bufferView": 1,
      "byteOffset": 11752,
      "componentType": 5126,
      "count": 141,
      "max": [
        0.0,
        0.0
      ],
      "min": [
        0.0,
        0.0
      ],
      "type": "VEC2"
    },
    {
      "bufferView": 2,
      "byteOffset": 35256,
      "componentType": 5126,
      "count": 141,
      "max": [
        0.8865127563476563,
        2.0928611755371094,
        2.6052780151367188
      ],
      "min": [
        -0.8865165710449219,
        -2.0928611755371094,
        -2.6052780151367188
      ],
      "type": "VEC3"
    },
    {
      "bufferView": 2,
      "byteOffset": 36948,
      "componentType": 5126,
      "count": 141,
      "max": [
        0.03964030742645264,
        0.06171391159296036,
        0.059146732091903687
      ],
      "min": [
        -0.04324716329574585,
        -0.05115211009979248,
        -0.058847516775131226
      ],
      "type": "VEC3"
    },
    {
      "bufferView": 0,
      "byteOffset": 15048,
      "componentType": 5125,
      "count": 720,
      "type": "SCALAR"
    },
    {
      "bufferView": 2,
      "byteOffset": 38640,
      "componentType": 5126,
      "count": 1106,
      "max": [
        36.07969665527344,
        17.887792587280273,
        23.293880462646484
      ],
      "min": [
        28.590129852294922,
        -0.5453355312347412,
        -23.69769287109375
      ],
      "type": "VEC3"
    },
    {
      "bufferView": 2,
      "byteOffset": 51912,
      "componentType": 5126,
      "count": 1106,
      "max": [
        0.9992470741271973,
        0.9993809461593628,
        0.9931944608688354
      ],
      "min": [
        -0.9994515180587769,
        -0.9711121916770935,
        -0.993194580078125
      ],
      "type": "VEC3"
    },
    {
      "bufferView": 1,
      "byteOffset": 12880,
      "componentType": 5126,
      "count": 1106,
      "max": [
        0.8983373045921326,
        0.8973199129104614
      ],
      "min": [
        0.07976667582988739,
        0.6150428056716919
      ],
      "type": "VEC2"
    },
    {
      "bufferView": 1,
      "byteOffset": 21728,
      "componentType": 5126,
      "count": 1106,
      "max": [
        0.9928349256515503,
        0.9964905977249146
      ],
      "min": [
        0.003450721502304077,
        0.5059166550636292
      ],
      "type": "VEC2"
    },
    {
      "bufferView": 2,
      "byteOffset": 65184,
      "componentType": 5126,
      "count": 1106,
      "max": [
        1.0655746459960938,
        2.6225719451904297,
        6.685722351074219
      ],
      "min": [
        -1.0655784606933594,
        -2.6225712299346924,
        -6.685722351074219
      ],
      "type": "VEC3"
    },
    {
      "bufferView": 2,
      "byteOffset": 78456,
      "componentType": 5126,
      "count": 1106,
      "max": [
        9.357929229736328e-06,
        3.337860107421875e-06,
        4.470348358154297e-06
      ],
      "min": [
        -5.587935447692871e-06,
        -4.827976226806641e-06,
        -3.039836883544922e-06
      ],
      "type": "VEC3"
    },
    {
      "bufferView": 0,
      "byteOffset": 17928,
      "componentType": 5125,
      "count": 5904,
      "type": "SCALAR"
    },
    {
      "bufferView": 3,
      "componentType": 5126,
      "count": 200,
      "max": [
        5.0
      ],
      "min": [
        0.0416666679084301
      ],
      "type": "SCALAR"
    },
    {
      "bufferView": 4,
      "componentType": 5126,
      "count": 200,
      "max": [
        4.920831680297852,
        1.1102230246251565e-16,
        0.0
      ],
      "min": [
        0.0,
        -1.1102230246251565e-16,
        0.0
      ],
      "type": "VEC3"
    },
    {
      "bufferView": 3,
      "byteOffset": 800,
      "componentType": 5126,
      "count": 200,
      "max": [
        5.0
      ],
      "min": [
        0.0416666679084301
      ],
      "type": "SCALAR"
    },
    {
      "bufferView": 5,
      "componentType": 5126,
      "count": 200,
      "max": [
        0.0,
        0.0,
        0.0,
        1.0
      ],
      "min": [
        0.0,
        0.0,
        -0.029025422409176826,
        0.9995786547660828
      ],
      "type": "VEC4"
    },
    {
      "bufferView": 3,
      "byteOffset": 1600,
      "componentType": 5126,
      "count": 125,
      "max": [
        4.166666507720947
      ],
      "min": [
        0.0416666679084301
      ],
      "type": "SCALAR"
    },
    {
      "bufferView": 5,
      "byteOffset": 3200,
      "componentType": 5126,
      "count": 125,
      "max": [
        0.0,
        0.0,
        0.0,
        1.0
      ],
      "min": [
        0.0,
        0.0,
        -0.05826648697257042,
        0.998301088809967
      ],
      "type": "VEC4"
    },
    {
      "bufferView": 3,
      "byteOffset": 2100,
      "componentType": 5126,
      "count": 125,
      "max": [
        4.175000190734863
      ],
      "min": [
        0.0416666679084301
      ],
      "type": "SCALAR"
    },
    {
      "bufferView": 3,
      "byteOffset": 2600,
      "componentType": 5126,
      "count": 125,
      "max": [
        0.9999501705169678
      ],
      "min": [
        0.0
      ],
      "type": "SCALAR"
    },
    {
      "bufferView": 3,
      "byteOffset": 3100,
      "componentType": 5126,
      "count": 125,
      "max": [
        4.175000190734863
      ],
      "min": [
        0.0416666679084301
      ],
      "type": "SCALAR"
    },
    {
      "bufferView": 3,
      "byteOffset": 3600,
      "componentType": 5126,
      "count": 125,
      "max": [
        0.9999501705169678
      ],
      "min": [
        0.0
      ],
      "type": "SCALAR"
    },
    {
      "bufferView": 3,
      "byteOffset": 4100,
      "componentType": 5126,
      "count": 125,
      "max": [
        4.175000190734863
      ],
      "min": [
        0.0416666679084301
      ],
      "type": "SCALAR"
    },
    {
      "bufferView": 3,
      "byteOffset": 4600,
      "componentType": 5126,
      "count": 125,
      "max": [
        0.9999501705169678
      ],
      "min": [
        0.0
      ],
      "type": "SCALAR"
    }
  ],
  "animations": [
    {
      "channels": [
        {
          "sampler": 0,
          "target": {
            "node": 5,
            "path": "translation"
          }
        },
        {
          "sampler": 1,
          "target": {
            "node": 5,
            "path": "rotation"
          }
        },
        {
          "sampler": 2,
          "target": {
            "node": 4,
            "path": "rotation"
          }
        },
        {
          "sampler": 3,
          "target": {
            "node": 6,
            "path": "weights"
          }
        },
        {
          "sampler": 4,
          "target": {
            "node": 7,
            "path": "weights"
          }
        },
        {
          "sampler": 5,
          "target": {
            "node": 8,
            "path": "weights"
          }
        }
      ],
      "name": "Take 001",
      "samplers": [
        {
          "input": 21,
          "interpolation": "LINEAR",
          "output": 22
        },
        {
          "input": 23,
          "interpolation": "LINEAR",
          "output": 24
        },
        {
          "input": 25,
          "interpolation": "LINEAR",
          "output": 26
        },
        {
          "input": 27,
          "interpolation": "LINEAR",
          "output": 28
        },
        {
          "input": 29,
          "interpolation": "LINEAR",
          "output": 30
        },
        {
          "input": 31,
          "interpolation": "LINEAR",
          "output": 32
        }
      ]
    }
  ],
  "asset": {
    "extras": {
      "author": "JadeBarbiier (https://sketchfab.com/JadeBarbiier)",
      "license": "CC-BY-4.0 (http://creativecommons.org/licenses/by/4.0/)",
      "source": "https://sketchfab.com/3d-models/emoji-inlove-b232f57f69054bd491db551f625a5a7c",
      "title": "Emoji_InLove"
    },
    "generator": "Sketchfab-11.88.0",
    "version": "2.0"
  },
  "bufferViews": [
    {
      "buffer": 0,
      "byteLength": 41544,
      "name": "floatBufferViews",
      "target": 34963
    },
    {
      "buffer": 0,
      "byteLength": 30576,
      "byteOffset": 41544,
      "byteStride": 8,
      "name": "floatBufferViews",
      "target": 34962
    },
    {
      "buffer": 0,
      "byteLength": 91728,
      "byteOffset": 72120,
      "byteStride": 12,
      "name": "floatBufferViews",
      "target": 34962
    },
    {
      "buffer": 0,
      "byteLength": 5100,
      "byteOffset": 163848,
      "name": "floatBufferViews"
    },
    {
      "buffer": 0,
      "byteLength": 2400,
      "byteOffset": 168948,
      "byteStride": 12,
      "name": "floatBufferViews"
    },
    {
      "buffer": 0,
      "byteLength": 5200,
      "byteOffset": 171348,
      "byteStride": 16,
      "name": "floatBufferViews"
    }
  ],
  "buffers": [
    {
      "byteLength": 176548,
      "uri": "scene.bin"
    }
  ],
  "images": [
    {
      "uri": "textures/Skin_baseColor.png"
    },
    {
      "uri": "textures/Skin_metallicRoughness.png"
    },
    {
      "uri": "textures/Mouth1_baseColor.png"
    },
    {
      "uri": "textures/Mouth1_metallicRoughness.png"
    },
    {
      "uri": "textures/Heart5_baseColor.png"
    },
    {
      "uri": "textures/Heart5_metallicRoughness.png"
    }
  ],
  "materials": [
    {
      "doubleSided": true,
      "name": "Skin",
      "pbrMetallicRoughness": {
        "baseColorTexture": {
          "index": 0
        },
        "metallicFactor": 0.0,
        "metallicRoughnessTexture": {
          "index": 1
        }
      }
    },
    {
      "doubleSided": true,
      "name": "Mouth1",
      "pbrMetallicRoughness": {
        "baseColorTexture": {
          "index": 2
        },
        "metallicFactor": 0.0,
        "metallicRoughnessTexture": {
          "index": 3
        }
      }
    },
    {
      "doubleSided": true,
      "name": "Heart5",
      "pbrMetallicRoughness": {
        "baseColorTexture": {
          "index": 4
        },
        "metallicFactor": 0.0,
        "metallicRoughnessTexture": {
          "index": 5
        }
      }
    }
  ],
  "meshes": [
    {
      "name": "0",
      "primitives": [
        {
          "attributes": {
            "NORMAL": 1,
            "POSITION": 0,
            "TEXCOORD_0": 2,
            "TEXCOORD_1": 3
          },
          "indices": 6,
          "material": 0,
          "mode": 4,
          "targets": [
            {
              "NORMAL": 5,
              "POSITION": 4
            }
          ]
        }
      ],
      "weights": [
        0.0
      ]
    },
    {
      "name": "1",
      "primitives": [
        {
          "attributes": {
            "NORMAL": 8,
            "POSITION": 7,
            "TEXCOORD_0": 9,
            "TEXCOORD_1": 10
          },
          "indices": 13,
          "material": 1,
          "mode": 4,
          "targets": [
            {
              "NORMAL": 12,
              "POSITION": 11
            }
          ]
        }
      ],
      "weights": [
        0.0
      ]
    },
    {
      "name": "2",
      "primitives": [
        {
          "attributes": {
            "NORMAL": 15,
            "POSITION": 14,
            "TEXCOORD_0": 16,
            "TEXCOORD_1": 17
          },
          "indices": 20,
          "material": 2,
          "mode": 4,
          "targets": [
            {
              "NORMAL": 19,
              "POSITION": 18
            }
          ]
        }
      ],
      "weights": [
        0.0
      ]
    }
  ],
  "nodes": [
    {
      "children": [
        1
      ],
      "matrix": [
        1.0,
        0.0,
        0.0,
        0.0,
        0.0,
        2.220446049250313e-16,
        -1.0,
        0.0,
        0.0,
        1.0,
        2.220446049250313e-16,
        0.0,
        0.0,
        0.0,
        0.0,
        1.0
      ],
      "name": "Sketchfab_model"
    },
    {
      "children": [
        2
      ],
      "matrix": [
        0.009999999776482582,
        0.0,
        0.0,
        0.0,
        0.0,
        0.0,
        0.009999999776482582,
        0.0,
        0.0,
        -0.009999999776482582,
        0.0,
        0.0,
        0.0,
        0.0,
        0.0,
        1.0
      ],
      "name": "9356bf14ee674e91b9be841a1c23c839.fbx"
    },
    {
      "children": [
        3
      ],
      "name": "Object_2"
    },
    {
      "children": [
        4
      ],
      "name": "RootNode"
    },
    {
      "children": [
        5
      ],
      "name": "InLove1"
    },
    {
      "children": [
        6,
        7,
        8
      ],
      "name": "InLove_1"
    },
    {
      "mesh": 0,
      "name": "0"
    },
    {
      "mesh": 1,
      "name": "1"
    },
    {
      "mesh": 2,
      "name": "2"
    }
  ],
  "samplers": [
    {
      "magFilter": 9729,
      "minFilter": 9987,
      "wrapS": 10497,
      "wrapT": 10497
    }
  ],
  "scene": 0,
  "scenes": [
    {
      "name": "Sketchfab_Scene",
      "nodes": [
        0
      ]
    }
  ],
  "textures": [
    {
      "sampler": 0,
      "source": 0
    },
    {
      "sampler": 0,
      "source": 1
    },
    {
      "sampler": 0,
      "source": 2
    },
    {
      "sampler": 0,
      "source": 3
    },
    {
      "sampler": 0,
      "source": 4
    },
    {
      "sampler": 0,
      "source": 5
    }
  ]
}
